<?xml version="1.0" standalone="no"?>
<!DOCTYPE svg PUBLIC "-//W3C//DTD SVG 20010904//EN"
 "http://www.w3.org/TR/2001/REC-SVG-20010904/DTD/svg10.dtd">
<svg version="1.0" xmlns="http://www.w3.org/2000/svg"
 width="700.000000pt" height="700.000000pt" viewBox="0 0 700.000000 700.000000"
 preserveAspectRatio="xMidYMid meet">
<metadata>
Created by potrace 1.14, written by Peter Selinger 2001-2017
</metadata>
<g transform="translate(0.000000,700.000000) scale(0.100000,-0.100000)"
fill="#000000" stroke="none">
<path d="M0 3500 l0 -3500 3500 0 3500 0 0 3500 0 3500 -3500 0 -3500 0 0
-3500z m3975 2015 c169 -31 410 -108 410 -130 0 -5 -27 -11 -60 -12 -343 -15
-789 -96 -1029 -189 -304 -117 -555 -321 -661 -537 -51 -105 -68 -184 -63
-293 5 -118 41 -198 126 -275 l57 -52 6 139 c8 152 20 210 69 305 160 318 574
555 1105 633 222 33 621 61 1023 72 l252 7 0 -387 0 -386 -992 0 -992 0 -135
-135 -136 -136 27 -22 c15 -12 89 -60 165 -106 224 -138 1130 -728 1233 -804
179 -132 295 -273 335 -407 23 -77 31 -242 15 -337 -40 -252 -204 -485 -457
-649 -164 -106 -385 -183 -628 -220 -202 -30 -622 -18 -900 26 -33 6 -63 10
-67 10 -5 0 -8 6 -8 14 0 10 23 15 88 21 354 28 601 71 811 141 356 118 625
300 770 520 91 139 119 294 76 427 -25 79 -123 188 -178 199 -16 3 -18 -10
-20 -152 -3 -130 -7 -165 -25 -215 -66 -179 -233 -331 -517 -470 -256 -126
-516 -195 -879 -235 -84 -9 -822 -39 -968 -40 l-48 0 0 375 0 375 1000 0 1000
0 125 111 c69 62 125 113 125 114 0 3 -312 204 -625 402 -863 547 -919 587
-1020 728 -165 231 -198 503 -94 789 58 160 164 310 306 432 240 204 507 317
868 368 72 10 424 -3 510 -19z m-1779 -292 c-107 -141 -162 -284 -187 -493
-25 -209 15 -426 117 -633 93 -190 205 -323 434 -515 181 -152 249 -216 219
-207 -96 29 -299 114 -367 153 -281 161 -503 389 -632 647 -67 134 -91 229
-97 385 -10 253 58 411 230 537 39 29 300 172 315 173 2 0 -12 -21 -32 -47z
m2267 -1601 c260 -123 517 -330 660 -533 181 -256 243 -569 162 -818 -24 -74
-34 -92 -84 -140 -31 -31 -92 -78 -136 -105 -44 -27 -118 -78 -164 -114 -46
-36 -82 -61 -80 -56 2 5 25 47 51 94 26 47 62 128 80 180 33 94 33 96 32 280
0 172 -2 191 -27 273 -57 185 -157 344 -325 519 -117 120 -261 244 -360 307
-59 38 -60 32 17 114 25 26 51 47 59 47 7 0 59 -22 115 -48z"/>
</g>
</svg>
